<?xml version="1.0" encoding="UTF-8" standalone="no"?>
<svg width="64px" height="64px" viewBox="0 0 64 64" version="1.1" xmlns="http://www.w3.org/2000/svg" xmlns:xlink="http://www.w3.org/1999/xlink" xmlns:sketch="http://www.bohemiancoding.com/sketch/ns">
    <!-- Generator: Sketch 3.3.3 (12081) - http://www.bohemiancoding.com/sketch -->
    <title>Microscope 64px</title>
    <desc>Created with Sketch.</desc>
    <defs></defs>
    <g id="Page-2" stroke="none" stroke-width="1" fill="none" fill-rule="evenodd" sketch:type="MSPage">
        <g id="Microscope-64px" sketch:type="MSLayerGroup">
            <circle id="Background" fill="#F0AD4E" sketch:type="MSShapeGroup" cx="32" cy="32" r="32"></circle>
            <path d="M37.5653193,39.4042095 C42.1970507,37.9112103 45.5479448,33.565511 45.5479448,28.4371684 C45.5479448,22.074604 40.3900672,16.9167264 34.0275028,16.9167264 C33.1856428,16.9167264 32.3648734,17.0070262 31.574352,17.1784682 L31.574352,17.1784682 L31.574352,21.1749768 C32.3473311,20.9125253 33.1757857,20.7701845 34.0374858,20.7701845 C38.2663306,20.7701845 41.6944867,24.1983406 41.6944867,28.4271854 C41.6944867,32.3186781 38.79147,35.5321349 35.0329217,36.0200708 L37.5653193,39.4042095 Z" id="Neck" fill="#EFEDED" sketch:type="MSShapeGroup"></path>
            <g id="Base" transform="translate(16.174625, 33.222374)" sketch:type="MSShapeGroup">
                <rect id="Path-Copy" fill="#EBE8E8" x="0" y="12.2673943" width="31.6289222" height="4.06002729" rx="0.654843111"></rect>
                <rect id="Tray" fill="#2A2A2A" x="2.66302865" y="4.47476126" width="17.0914052" height="1.2005457" rx="0.654843111"></rect>
                <polygon id="Triangle-1-Copy-2" fill="#F1EFEF" points="18.9686221 0 28.3547067 12.2673943 9.58253752 12.2673943 "></polygon>
                <path d="M21.3193629,3.07236356 L19.6286333,0.862619343 C19.2598214,0.380590696 18.673125,0.386207835 18.3086109,0.862619343 L9.58253752,12.2673943 L11.2478686,12.2673943 L21.3193629,3.07236356 Z" id="Triangle-1-Copy-3" opacity="0.436275653" fill="#FFFFFF"></path>
                <circle id="Pin" fill="#2A2A2A" cx="18.9904502" cy="5.06412005" r="0.763983629"></circle>
            </g>
            <g id="Scope" transform="translate(25.015007, 12.965894)" sketch:type="MSShapeGroup">
                <rect id="Rectangle-3" fill="#2A2A2A" x="0.742155525" y="0" width="5.10777626" height="15.6070941" rx="0.654843111"></rect>
                <path d="M0.873124147,0.130968622 L2.7270181,0.130968622 C3.08950355,0.130968622 3.38335607,0.423713525 3.38335607,0.790122404 L3.38335607,14.812121 C3.38335607,15.1761616 3.08433814,15.4712748 2.7270181,15.4712748 L0.873124147,15.4712748 L0.873124147,0.130968622 Z" id="Rectangle-3-Copy" fill="#4D4D4D" transform="translate(2.128240, 7.801122) scale(-1, 1) translate(-2.128240, -7.801122) "></path>
                <rect id="Rectangle-3-Copy-2" fill="#F2F2F2" x="0" y="1.57162347" width="6.57025921" height="12.420191" rx="0.654843111"></rect>
                <path d="M3.38335607,1.68076398 L5.80526996,1.68076398 C6.16748521,1.68076398 6.46111869,1.9823859 6.46111869,2.33679166 L6.46111869,13.2266463 C6.46111869,13.5889603 6.17168166,13.8826739 5.80526996,13.8826739 L3.38335607,13.8826739 L3.38335607,1.68076398 Z" id="Rectangle-3-Copy-3" fill="#E7E7E7"></path>
            </g>
        </g>
    </g>
</svg>