<?xml version="1.0" encoding="UTF-8" standalone="no"?>
<svg width="64px" height="64px" viewBox="0 0 64 64" version="1.1" xmlns="http://www.w3.org/2000/svg" xmlns:xlink="http://www.w3.org/1999/xlink" xmlns:sketch="http://www.bohemiancoding.com/sketch/ns">
    <title>Microscope</title>
    <defs></defs>
    <g id="Page-2" stroke="none" stroke-width="1" fill="none" fill-rule="evenodd" sketch:type="MSPage">
        <g id="Microscope-64" sketch:type="MSLayerGroup">
            <circle id="Background" fill="#F0AD4E" sketch:type="MSShapeGroup" cx="32.1189591" cy="31.8810409" r="30.4535316"></circle>
            <g id="Microscope" transform="translate(16.892193, 14.750929)" sketch:type="MSShapeGroup">
                <path d="M18.3704505,25.2473313 C22.7952172,23.8215882 25.9963798,19.6716525 25.9963798,14.7743299 C25.9963798,8.69838418 21.0689772,3.77285701 14.990718,3.77285701 C14.1864757,3.77285701 13.4023816,3.85908895 12.6471839,4.02280795 L12.6471839,4.02280795 L12.6471839,7.83928312 C13.3856232,7.58865442 14.1770591,7.45272575 15.000255,7.45272575 C19.0401378,7.45272575 22.3151099,10.7264513 22.3151099,14.7647965 C22.3151099,18.4809865 19.5418118,21.5496846 15.9512107,22.0156401 L18.3704505,25.2473313 Z" id="Neck" fill="#EFEDED"></path>
                <g id="BaseGroup" transform="translate(0.000000, 18.343423)">
                    <rect id="Base" fill="#EBE8E8" x="0" y="11.7147767" width="30.2156134" height="3.87713249" rx="0.623196417"></rect>
                    <polygon id="Fulcrum" fill="#F1EFEF" points="18.1210269 0 27.0877031 11.7147767 9.15435078 11.7147767 "></polygon>
                    <path d="M20.3667271,2.93396072 L18.7515462,0.823760347 C18.3992143,0.36344597 17.8387338,0.36881007 17.4905077,0.823760347 L9.15435078,11.7147767 L10.7452681,11.7147767 L20.3667271,2.93396072 Z" id="Triangle-Reflection" opacity="0.436275653" fill="#FFFFFF"></path>
                    <ellipse id="Pin" fill="#2A2A2A" cx="18.1418797" cy="4.83599322" rx="0.729845734" ry="0.729567942"></ellipse>
                </g>
                <g id="Scope" transform="translate(9.508847, 0.000000)">
                    <rect id="Rectangle-3" fill="#2A2A2A" x="0.708992999" y="0" width="4.87954005" height="14.9040308" rx="0.623196417"></rect>
                    <path d="M0.83410941,0.12506879 L2.60516384,0.12506879 C2.95145197,0.12506879 3.23217396,0.404626216 3.23217396,0.754529226 L3.23217396,14.1448694 C3.23217396,14.4925108 2.94651737,14.7743299 2.60516384,14.7743299 L0.83410941,14.7743299 L0.83410941,0.12506879 Z" id="Rectangle-3-Copy" fill="#4D4D4D" transform="translate(2.033142, 7.449699) scale(-1, 1) translate(-2.033142, -7.449699) "></path>
                    <rect id="Rectangle-3-Copy-2" fill="#F2F2F2" x="0" y="1.50082548" width="6.27667331" height="11.8606903" rx="0.623196417"></rect>
                    <path d="M3.23217396,1.60504947 L5.54586689,1.60504947 C5.89189689,1.60504947 6.17240964,1.89308403 6.17240964,2.23152463 L6.17240964,12.6308166 C6.17240964,12.9768093 5.89590583,13.2572917 5.54586689,13.2572917 L3.23217396,13.2572917 L3.23217396,1.60504947 Z" id="Rectangle-3-Copy-3" fill="#E7E7E7"></path>
                </g>
            </g>
        </g>
    </g>
</svg>
